<svg width="221" height="16" viewBox="0 0 221 16" fill="none" xmlns="http://www.w3.org/2000/svg">
<path d="M6.7155 12.644C5.90483 12.644 5.14217 12.5 4.4275 12.212C3.7235 11.9133 3.11017 11.5027 2.5875 10.98C2.06483 10.4573 1.65417 9.844 1.3555 9.14C1.0675 8.42533 0.9235 7.66267 0.9235 6.852C0.9235 6.03067 1.0675 5.268 1.3555 4.564C1.65417 3.86 2.06483 3.252 2.5875 2.74C3.11017 2.21733 3.7235 1.812 4.4275 1.524C5.1315 1.22533 5.89417 1.076 6.7155 1.076C7.53683 1.076 8.2995 1.22533 9.0035 1.524C9.7075 1.812 10.3155 2.21733 10.8275 2.74C11.3502 3.252 11.7555 3.86 12.0435 4.564C12.3422 5.268 12.4915 6.03067 12.4915 6.852C12.4915 7.66267 12.3422 8.42533 12.0435 9.14C11.7555 9.844 11.3502 10.4573 10.8275 10.98C10.3155 11.5027 9.7075 11.9133 9.0035 12.212C8.2995 12.5 7.53683 12.644 6.7155 12.644ZM6.9555 10.308C5.91017 10.308 5.0835 9.99333 4.4755 9.364C3.8675 8.724 3.5635 7.876 3.5635 6.82C3.5635 5.764 3.8675 4.932 4.4755 4.324C5.0835 3.716 5.91017 3.412 6.9555 3.412C7.38217 3.412 7.8035 3.48667 8.2195 3.636C8.64617 3.77467 8.99283 3.972 9.2595 4.228L8.8115 5.22C8.5555 4.98533 8.27283 4.81467 7.9635 4.708C7.65417 4.59067 7.35017 4.532 7.0515 4.532C6.40083 4.532 5.88883 4.73467 5.5155 5.14C5.15283 5.54533 4.9715 6.11067 4.9715 6.836C4.9715 7.55067 5.15283 8.12133 5.5155 8.548C5.88883 8.964 6.40083 9.172 7.0515 9.172C7.35017 9.172 7.65417 9.11867 7.9635 9.012C8.27283 8.89467 8.5555 8.71867 8.8115 8.484L9.2595 9.492C8.99283 9.73733 8.64617 9.93467 8.2195 10.084C7.79283 10.2333 7.3715 10.308 6.9555 10.308ZM6.7155 11.876C7.43017 11.876 8.08617 11.7533 8.6835 11.508C9.2915 11.252 9.8195 10.8947 10.2675 10.436C10.7155 9.97733 11.0622 9.444 11.3075 8.836C11.5635 8.228 11.6915 7.56667 11.6915 6.852C11.6915 6.13733 11.5635 5.476 11.3075 4.868C11.0622 4.26 10.7155 3.732 10.2675 3.284C9.8195 2.82533 9.2915 2.47333 8.6835 2.228C8.08617 1.972 7.43017 1.844 6.7155 1.844C6.00083 1.844 5.3395 1.972 4.7315 2.228C4.1235 2.47333 3.5955 2.82533 3.1475 3.284C2.6995 3.732 2.3475 4.26 2.0915 4.868C1.84617 5.476 1.7235 6.13733 1.7235 6.852C1.7235 7.56667 1.84617 8.228 2.0915 8.836C2.3475 9.444 2.6995 9.97733 3.1475 10.436C3.5955 10.8947 4.1235 11.252 4.7315 11.508C5.3395 11.7533 6.00083 11.876 6.7155 11.876ZM18.828 12.5V11.268L22.7 7.22C23.2013 6.69733 23.5747 6.20667 23.82 5.748C24.0653 5.28933 24.188 4.81467 24.188 4.324C24.188 3.716 23.996 3.25733 23.612 2.948C23.2387 2.63867 22.6947 2.484 21.98 2.484C21.4147 2.484 20.8813 2.58533 20.38 2.788C19.8893 2.99067 19.4147 3.3 18.956 3.716L18.38 2.452C18.828 2.036 19.3827 1.70533 20.044 1.46C20.716 1.204 21.4253 1.076 22.172 1.076C23.3453 1.076 24.2467 1.34267 24.876 1.876C25.516 2.40933 25.836 3.172 25.836 4.164C25.836 4.868 25.6653 5.54533 25.324 6.196C24.9827 6.836 24.4707 7.49733 23.788 8.18L20.444 11.556V11.108H26.3V12.5H18.828ZM31.8938 12.644C30.5924 12.644 29.5898 12.148 28.8858 11.156C28.1924 10.1533 27.8458 8.71867 27.8458 6.852C27.8458 4.95333 28.1924 3.51867 28.8858 2.548C29.5898 1.56667 30.5924 1.076 31.8938 1.076C33.2058 1.076 34.2084 1.56667 34.9018 2.548C35.5951 3.51867 35.9418 4.948 35.9418 6.836C35.9418 8.71333 35.5898 10.1533 34.8858 11.156C34.1924 12.148 33.1951 12.644 31.8938 12.644ZM31.8938 11.252C32.7151 11.252 33.3231 10.8947 33.7178 10.18C34.1231 9.46533 34.3258 8.35067 34.3258 6.836C34.3258 5.31067 34.1231 4.20133 33.7178 3.508C33.3231 2.804 32.7151 2.452 31.8938 2.452C31.0831 2.452 30.4751 2.804 30.0698 3.508C29.6644 4.20133 29.4618 5.30533 29.4618 6.82C29.4618 8.34533 29.6644 9.46533 30.0698 10.18C30.4858 10.8947 31.0938 11.252 31.8938 11.252ZM38.0155 12.5V11.268L41.8875 7.22C42.3888 6.69733 42.7622 6.20667 43.0075 5.748C43.2528 5.28933 43.3755 4.81467 43.3755 4.324C43.3755 3.716 43.1835 3.25733 42.7995 2.948C42.4262 2.63867 41.8822 2.484 41.1675 2.484C40.6022 2.484 40.0688 2.58533 39.5675 2.788C39.0768 2.99067 38.6022 3.3 38.1435 3.716L37.5675 2.452C38.0155 2.036 38.5702 1.70533 39.2315 1.46C39.9035 1.204 40.6128 1.076 41.3595 1.076C42.5328 1.076 43.4342 1.34267 44.0635 1.876C44.7035 2.40933 45.0235 3.172 45.0235 4.164C45.0235 4.868 44.8528 5.54533 44.5115 6.196C44.1702 6.836 43.6582 7.49733 42.9755 8.18L39.6315 11.556V11.108H45.4875V12.5H38.0155ZM50.9693 12.644C50.2013 12.644 49.4653 12.532 48.7613 12.308C48.0573 12.0733 47.4706 11.7427 47.0013 11.316L47.5773 10.052C48.0999 10.4573 48.6333 10.756 49.1773 10.948C49.7213 11.14 50.3026 11.236 50.9213 11.236C51.7106 11.236 52.3079 11.0707 52.7133 10.74C53.1293 10.4093 53.3373 9.93467 53.3373 9.316C53.3373 8.708 53.1293 8.24933 52.7133 7.94C52.3079 7.62 51.7053 7.46 50.9053 7.46H49.1613V6.116H50.7773C51.4599 6.116 52.0039 5.94533 52.4093 5.604C52.8146 5.252 53.0173 4.77733 53.0173 4.18C53.0173 3.636 52.8306 3.22 52.4573 2.932C52.0839 2.63333 51.5506 2.484 50.8573 2.484C49.6839 2.484 48.6546 2.89467 47.7693 3.716L47.2093 2.452C47.6466 2.01467 48.2013 1.67867 48.8733 1.444C49.5453 1.19867 50.2493 1.076 50.9852 1.076C52.1159 1.076 53.0066 1.33733 53.6573 1.86C54.3079 2.372 54.6333 3.08667 54.6333 4.004C54.6333 4.69733 54.4359 5.28933 54.0413 5.78C53.6573 6.27067 53.1293 6.596 52.4573 6.756V6.58C53.2573 6.708 53.8706 7.028 54.2973 7.54C54.7346 8.04133 54.9533 8.67067 54.9533 9.428C54.9533 10.4307 54.5959 11.22 53.8813 11.796C53.1773 12.3613 52.2066 12.644 50.9693 12.644ZM61.2606 8.756V7.46H65.9486V8.756H61.2606ZM72.6561 12.5V1.22H77.4241C78.6295 1.22 79.5628 1.508 80.2241 2.084C80.8855 2.64933 81.2161 3.444 81.2161 4.468C81.2161 5.14 81.0668 5.716 80.7681 6.196C80.4695 6.676 80.0481 7.044 79.5041 7.3C78.9601 7.54533 78.3201 7.668 77.5841 7.668L77.8401 7.412H78.2721C78.7095 7.412 79.0988 7.524 79.4401 7.748C79.7921 7.972 80.0801 8.32933 80.3041 8.82L81.9201 12.5H80.0961L78.4961 8.804C78.3361 8.36667 78.0855 8.084 77.7441 7.956C77.4135 7.828 77.0028 7.764 76.5121 7.764H74.3201V12.5H72.6561ZM74.3201 6.5H77.1521C77.9521 6.5 78.5548 6.32933 78.9601 5.988C79.3761 5.64667 79.5841 5.156 79.5841 4.516C79.5841 3.86533 79.3761 3.37467 78.9601 3.044C78.5548 2.71333 77.9521 2.548 77.1521 2.548H74.3201V6.5ZM86.9369 12.644C86.1369 12.644 85.4435 12.4787 84.8569 12.148C84.2702 11.8067 83.8169 11.3267 83.4969 10.708C83.1769 10.0787 83.0169 9.332 83.0169 8.468C83.0169 7.604 83.1769 6.86267 83.4969 6.244C83.8169 5.61467 84.2702 5.13467 84.8569 4.804C85.4435 4.46267 86.1369 4.292 86.9369 4.292C87.7369 4.292 88.4302 4.46267 89.0169 4.804C89.6142 5.13467 90.0729 5.61467 90.3929 6.244C90.7235 6.86267 90.8889 7.604 90.8889 8.468C90.8889 9.332 90.7235 10.0787 90.3929 10.708C90.0729 11.3267 89.6142 11.8067 89.0169 12.148C88.4302 12.4787 87.7369 12.644 86.9369 12.644ZM86.9369 11.38C87.6409 11.38 88.2009 11.1347 88.6169 10.644C89.0329 10.1533 89.2409 9.428 89.2409 8.468C89.2409 7.508 89.0329 6.788 88.6169 6.308C88.2009 5.81733 87.6409 5.572 86.9369 5.572C86.2435 5.572 85.6889 5.81733 85.2729 6.308C84.8569 6.788 84.6489 7.508 84.6489 8.468C84.6489 9.428 84.8515 10.1533 85.2569 10.644C85.6729 11.1347 86.2329 11.38 86.9369 11.38ZM96.3138 12.644C95.5031 12.644 94.7938 12.4787 94.1858 12.148C93.5884 11.8067 93.1244 11.3213 92.7938 10.692C92.4738 10.052 92.3138 9.29467 92.3138 8.42C92.3138 7.556 92.4791 6.81467 92.8098 6.196C93.1404 5.57733 93.6044 5.108 94.2018 4.788C94.7991 4.45733 95.5031 4.292 96.3138 4.292C96.8364 4.292 97.3431 4.38267 97.8338 4.564C98.3244 4.73467 98.7298 4.98 99.0498 5.3L98.5218 6.436C98.2231 6.148 97.8871 5.93467 97.5138 5.796C97.1404 5.64667 96.7778 5.572 96.4258 5.572C95.6578 5.572 95.0551 5.81733 94.6178 6.308C94.1804 6.79867 93.9618 7.508 93.9618 8.436C93.9618 9.37467 94.1804 10.0947 94.6178 10.596C95.0551 11.0973 95.6578 11.348 96.4258 11.348C96.7671 11.348 97.1244 11.284 97.4978 11.156C97.8711 11.0173 98.2124 10.7987 98.5218 10.5L99.0498 11.636C98.7191 11.956 98.3031 12.2067 97.8018 12.388C97.3111 12.5587 96.8151 12.644 96.3138 12.644ZM100.762 12.5V0.723999H102.378V7.956H102.41L105.93 4.436H107.93L103.674 8.676L103.69 7.956L108.282 12.5H106.234L102.41 8.804H102.378V12.5H100.762ZM112.834 12.644C111.533 12.644 110.509 12.276 109.762 11.54C109.015 10.804 108.642 9.78533 108.642 8.484C108.642 7.64133 108.802 6.90533 109.122 6.276C109.453 5.64667 109.906 5.16133 110.482 4.82C111.069 4.468 111.746 4.292 112.514 4.292C113.271 4.292 113.906 4.452 114.418 4.772C114.93 5.092 115.319 5.54533 115.586 6.132C115.853 6.708 115.986 7.39067 115.986 8.18V8.692H109.906V7.764H114.882L114.61 7.972C114.61 7.172 114.429 6.55333 114.066 6.116C113.714 5.668 113.202 5.444 112.53 5.444C111.783 5.444 111.207 5.70533 110.802 6.228C110.397 6.74 110.194 7.44933 110.194 8.356V8.516C110.194 9.46533 110.423 10.18 110.882 10.66C111.351 11.14 112.013 11.38 112.866 11.38C113.335 11.38 113.773 11.316 114.178 11.188C114.594 11.0493 114.989 10.8253 115.362 10.516L115.89 11.62C115.517 11.9507 115.063 12.2067 114.53 12.388C113.997 12.5587 113.431 12.644 112.834 12.644ZM120.961 12.644C120.086 12.644 119.425 12.4093 118.977 11.94C118.529 11.46 118.305 10.7453 118.305 9.796V5.684H116.737V4.436H118.305V2.308L119.921 1.876V4.436H122.161V5.684H119.921V9.652C119.921 10.2493 120.027 10.676 120.241 10.932C120.454 11.188 120.763 11.316 121.169 11.316C121.371 11.316 121.547 11.3 121.697 11.268C121.857 11.2253 122.001 11.1773 122.129 11.124V12.436C121.969 12.5 121.782 12.548 121.569 12.58C121.355 12.6227 121.153 12.644 120.961 12.644ZM126.405 12.644C125.733 12.644 125.114 12.5587 124.549 12.388C123.984 12.2173 123.514 11.9773 123.141 11.668L123.637 10.564C124.032 10.8627 124.469 11.0867 124.949 11.236C125.429 11.3853 125.92 11.46 126.421 11.46C127.008 11.46 127.45 11.3587 127.749 11.156C128.048 10.9427 128.197 10.6547 128.197 10.292C128.197 10.0147 128.101 9.79067 127.909 9.62C127.728 9.44933 127.424 9.32133 126.997 9.236L125.461 8.932C124.778 8.78267 124.261 8.52667 123.909 8.164C123.557 7.80133 123.381 7.33733 123.381 6.772C123.381 6.292 123.509 5.86533 123.765 5.492C124.032 5.11867 124.405 4.82533 124.885 4.612C125.376 4.39867 125.946 4.292 126.597 4.292C127.194 4.292 127.749 4.37733 128.261 4.548C128.773 4.71867 129.2 4.964 129.541 5.284L129.029 6.356C128.698 6.07867 128.325 5.86533 127.909 5.716C127.493 5.556 127.072 5.476 126.645 5.476C126.048 5.476 125.605 5.588 125.317 5.812C125.029 6.036 124.885 6.32933 124.885 6.692C124.885 6.96933 124.97 7.19867 125.141 7.38C125.322 7.55067 125.605 7.684 125.989 7.78L127.525 8.084C128.25 8.23333 128.794 8.47867 129.157 8.82C129.52 9.16133 129.701 9.62 129.701 10.196C129.701 10.6973 129.562 11.1347 129.285 11.508C129.008 11.8813 128.624 12.164 128.133 12.356C127.642 12.548 127.066 12.644 126.405 12.644ZM135.334 12.644C134.033 12.644 133.009 12.276 132.262 11.54C131.515 10.804 131.142 9.78533 131.142 8.484C131.142 7.64133 131.302 6.90533 131.622 6.276C131.953 5.64667 132.406 5.16133 132.982 4.82C133.569 4.468 134.246 4.292 135.014 4.292C135.771 4.292 136.406 4.452 136.918 4.772C137.43 5.092 137.819 5.54533 138.086 6.132C138.353 6.708 138.486 7.39067 138.486 8.18V8.692H132.406V7.764H137.382L137.11 7.972C137.11 7.172 136.929 6.55333 136.566 6.116C136.214 5.668 135.702 5.444 135.03 5.444C134.283 5.444 133.707 5.70533 133.302 6.228C132.897 6.74 132.694 7.44933 132.694 8.356V8.516C132.694 9.46533 132.923 10.18 133.382 10.66C133.851 11.14 134.513 11.38 135.366 11.38C135.835 11.38 136.273 11.316 136.678 11.188C137.094 11.0493 137.489 10.8253 137.862 10.516L138.39 11.62C138.017 11.9507 137.563 12.2067 137.03 12.388C136.497 12.5587 135.931 12.644 135.334 12.644ZM143.428 12.644C142.714 12.644 142.09 12.4787 141.556 12.148C141.023 11.8173 140.607 11.3373 140.308 10.708C140.02 10.0787 139.876 9.332 139.876 8.468C139.876 7.59333 140.02 6.84667 140.308 6.228C140.607 5.60933 141.023 5.13467 141.556 4.804C142.09 4.46267 142.714 4.292 143.428 4.292C144.132 4.292 144.746 4.468 145.268 4.82C145.791 5.172 146.138 5.652 146.308 6.26H146.132L146.292 4.436H147.86C147.828 4.76667 147.796 5.09733 147.764 5.428C147.743 5.748 147.732 6.06267 147.732 6.372V12.5H146.116V10.708H146.292C146.122 11.3053 145.77 11.78 145.236 12.132C144.714 12.4733 144.111 12.644 143.428 12.644ZM143.828 11.38C144.522 11.38 145.076 11.1347 145.492 10.644C145.919 10.1533 146.132 9.428 146.132 8.468C146.132 7.508 145.919 6.788 145.492 6.308C145.076 5.81733 144.522 5.572 143.828 5.572C143.124 5.572 142.559 5.81733 142.132 6.308C141.716 6.788 141.508 7.508 141.508 8.468C141.508 9.428 141.716 10.1533 142.132 10.644C142.548 11.1347 143.114 11.38 143.828 11.38ZM153.226 12.644C152.352 12.644 151.69 12.4093 151.242 11.94C150.794 11.46 150.57 10.7453 150.57 9.796V5.684H149.002V4.436H150.57V2.308L152.186 1.876V4.436H154.426V5.684H152.186V9.652C152.186 10.2493 152.293 10.676 152.506 10.932C152.72 11.188 153.029 11.316 153.434 11.316C153.637 11.316 153.813 11.3 153.962 11.268C154.122 11.2253 154.266 11.1773 154.394 11.124V12.436C154.234 12.5 154.048 12.548 153.834 12.58C153.621 12.6227 153.418 12.644 153.226 12.644ZM160.312 12.5V1.22H167.704V2.548H161.928V6.1H167.336V7.444H161.928V11.156H167.704V12.5H160.312ZM168.47 12.5L172.134 7.956V8.724L168.662 4.436H170.598L173.046 7.588H172.47L174.918 4.436H176.838L173.398 8.708V7.972L177.046 12.5H175.11L172.47 9.124H173.046L170.39 12.5H168.47ZM178.278 15.956V6.372C178.278 6.06267 178.262 5.748 178.23 5.428C178.208 5.09733 178.182 4.76667 178.15 4.436H179.718L179.878 6.26H179.702C179.872 5.652 180.214 5.172 180.726 4.82C181.248 4.468 181.867 4.292 182.582 4.292C183.296 4.292 183.92 4.46267 184.454 4.804C184.987 5.13467 185.398 5.60933 185.686 6.228C185.984 6.84667 186.134 7.59333 186.134 8.468C186.134 9.332 185.984 10.0787 185.686 10.708C185.398 11.3373 184.987 11.8173 184.454 12.148C183.92 12.4787 183.296 12.644 182.582 12.644C181.878 12.644 181.264 12.4733 180.742 12.132C180.23 11.78 179.888 11.3053 179.718 10.708H179.894V15.956H178.278ZM182.182 11.38C182.886 11.38 183.446 11.1347 183.862 10.644C184.288 10.1533 184.502 9.428 184.502 8.468C184.502 7.508 184.288 6.788 183.862 6.308C183.446 5.81733 182.886 5.572 182.182 5.572C181.478 5.572 180.912 5.81733 180.486 6.308C180.07 6.788 179.862 7.508 179.862 8.468C179.862 9.428 180.07 10.1533 180.486 10.644C180.912 11.1347 181.478 11.38 182.182 11.38ZM188.028 12.5V0.723999H189.644V12.5H188.028ZM195.468 12.644C194.668 12.644 193.975 12.4787 193.388 12.148C192.801 11.8067 192.348 11.3267 192.028 10.708C191.708 10.0787 191.548 9.332 191.548 8.468C191.548 7.604 191.708 6.86267 192.028 6.244C192.348 5.61467 192.801 5.13467 193.388 4.804C193.975 4.46267 194.668 4.292 195.468 4.292C196.268 4.292 196.961 4.46267 197.548 4.804C198.145 5.13467 198.604 5.61467 198.924 6.244C199.255 6.86267 199.42 7.604 199.42 8.468C199.42 9.332 199.255 10.0787 198.924 10.708C198.604 11.3267 198.145 11.8067 197.548 12.148C196.961 12.4787 196.268 12.644 195.468 12.644ZM195.468 11.38C196.172 11.38 196.732 11.1347 197.148 10.644C197.564 10.1533 197.772 9.428 197.772 8.468C197.772 7.508 197.564 6.788 197.148 6.308C196.732 5.81733 196.172 5.572 195.468 5.572C194.775 5.572 194.22 5.81733 193.804 6.308C193.388 6.788 193.18 7.508 193.18 8.468C193.18 9.428 193.383 10.1533 193.788 10.644C194.204 11.1347 194.764 11.38 195.468 11.38ZM201.277 12.5V6.436C201.277 6.10533 201.266 5.77467 201.245 5.444C201.234 5.10267 201.213 4.76667 201.181 4.436H202.749L202.925 6.516H202.669C202.776 6.01467 202.957 5.59867 203.213 5.268C203.469 4.93733 203.778 4.692 204.141 4.532C204.514 4.372 204.904 4.292 205.309 4.292C205.48 4.292 205.624 4.30267 205.741 4.324C205.858 4.33467 205.976 4.356 206.093 4.388L206.077 5.828C205.896 5.75333 205.736 5.71067 205.597 5.7C205.469 5.67867 205.309 5.668 205.117 5.668C204.648 5.668 204.248 5.77467 203.917 5.988C203.586 6.19067 203.336 6.468 203.165 6.82C202.994 7.172 202.909 7.55067 202.909 7.956V12.5H201.277ZM210.959 12.644C209.658 12.644 208.634 12.276 207.887 11.54C207.14 10.804 206.767 9.78533 206.767 8.484C206.767 7.64133 206.927 6.90533 207.247 6.276C207.578 5.64667 208.031 5.16133 208.607 4.82C209.194 4.468 209.871 4.292 210.639 4.292C211.396 4.292 212.031 4.452 212.543 4.772C213.055 5.092 213.444 5.54533 213.711 6.132C213.978 6.708 214.111 7.39067 214.111 8.18V8.692H208.031V7.764H213.007L212.735 7.972C212.735 7.172 212.554 6.55333 212.191 6.116C211.839 5.668 211.327 5.444 210.655 5.444C209.908 5.444 209.332 5.70533 208.927 6.228C208.522 6.74 208.319 7.44933 208.319 8.356V8.516C208.319 9.46533 208.548 10.18 209.007 10.66C209.476 11.14 210.138 11.38 210.991 11.38C211.46 11.38 211.898 11.316 212.303 11.188C212.719 11.0493 213.114 10.8253 213.487 10.516L214.015 11.62C213.642 11.9507 213.188 12.2067 212.655 12.388C212.122 12.5587 211.556 12.644 210.959 12.644ZM215.933 12.5V6.436C215.933 6.10533 215.923 5.77467 215.901 5.444C215.891 5.10267 215.869 4.76667 215.837 4.436H217.405L217.581 6.516H217.325C217.432 6.01467 217.613 5.59867 217.869 5.268C218.125 4.93733 218.435 4.692 218.797 4.532C219.171 4.372 219.56 4.292 219.965 4.292C220.136 4.292 220.28 4.30267 220.397 4.324C220.515 4.33467 220.632 4.356 220.749 4.388L220.733 5.828C220.552 5.75333 220.392 5.71067 220.253 5.7C220.125 5.67867 219.965 5.668 219.773 5.668C219.304 5.668 218.904 5.77467 218.573 5.988C218.243 6.19067 217.992 6.468 217.821 6.82C217.651 7.172 217.565 7.55067 217.565 7.956V12.5H215.933Z" fill="white"/>
</svg>
